<mxfile modified="2019-10-23T09:13:23.602Z" host="www.draw.io" agent="Mozilla/5.0 (Windows NT 10.0; WOW64) AppleWebKit/537.36 (KHTML, like Gecko) Chrome/77.0.3865.120 Safari/537.36" etag="nDjg0hUbmZ-MJFWVnI2P" version="12.1.3" type="github" pages="4">
  <diagram id="5jT3wcAudJJKc-Kk91_C" name="UK transplanting US">
    <mxGraphModel dx="1323" dy="820" grid="1" gridSize="10" guides="1" tooltips="1" connect="1" arrows="1" fold="1" page="1" pageScale="1" pageWidth="827" pageHeight="1169" math="0" shadow="0">
      <root>
        <mxCell id="0"/>
        <mxCell id="1" parent="0"/>
        <mxCell id="msU4wr58rD_FV19tekNM-1" value="英-客户搜索词&lt;br&gt;573&lt;br&gt;" style="ellipse;whiteSpace=wrap;html=1;" parent="1" vertex="1">
          <mxGeometry x="80" y="80" width="260" height="170" as="geometry"/>
        </mxCell>
        <mxCell id="msU4wr58rD_FV19tekNM-2" value="&lt;div style=&quot;text-align: center&quot;&gt;&lt;span&gt;美出单词&lt;/span&gt;&lt;/div&gt;&lt;div style=&quot;text-align: center&quot;&gt;&lt;span&gt;（不含不相关和品牌）&lt;/span&gt;&lt;/div&gt;&lt;div style=&quot;text-align: center&quot;&gt;&lt;span&gt;283&lt;/span&gt;&lt;/div&gt;" style="ellipse;whiteSpace=wrap;html=1;fillColor=none;" parent="1" vertex="1">
          <mxGeometry x="270" y="80" width="220" height="165" as="geometry"/>
        </mxCell>
        <mxCell id="msU4wr58rD_FV19tekNM-3" value="出单优化" style="text;html=1;strokeColor=none;fillColor=none;align=center;verticalAlign=middle;whiteSpace=wrap;rounded=0;fontColor=#FFB366;" parent="1" vertex="1">
          <mxGeometry x="287.5" y="176" width="30" height="28" as="geometry"/>
        </mxCell>
        <mxCell id="msU4wr58rD_FV19tekNM-4" value="&lt;font color=&quot;#ffb366&quot;&gt;无单词-英&lt;/font&gt;" style="text;html=1;strokeColor=none;fillColor=none;align=center;verticalAlign=middle;whiteSpace=wrap;rounded=0;" parent="1" vertex="1">
          <mxGeometry x="120" y="190" width="40" height="20" as="geometry"/>
        </mxCell>
        <mxCell id="msU4wr58rD_FV19tekNM-5" value="" style="endArrow=none;dashed=1;html=1;" parent="1" source="msU4wr58rD_FV19tekNM-7" edge="1">
          <mxGeometry width="50" height="50" relative="1" as="geometry">
            <mxPoint x="280" y="172.5" as="sourcePoint"/>
            <mxPoint x="320" y="130" as="targetPoint"/>
          </mxGeometry>
        </mxCell>
        <mxCell id="msU4wr58rD_FV19tekNM-6" value="&lt;span&gt;&lt;font color=&quot;#ffb366&quot;&gt;无单词-美出单&lt;/font&gt;&lt;/span&gt;" style="text;html=1;strokeColor=none;fillColor=none;align=center;verticalAlign=middle;whiteSpace=wrap;rounded=0;" parent="1" vertex="1">
          <mxGeometry x="350" y="220" width="87" height="10" as="geometry"/>
        </mxCell>
        <mxCell id="msU4wr58rD_FV19tekNM-7" value="&lt;font color=&quot;#00994d&quot;&gt;触顶&lt;/font&gt;" style="ellipse;whiteSpace=wrap;html=1;fillColor=none;fontColor=#FFB366;" parent="1" vertex="1">
          <mxGeometry x="285" y="123" width="35" height="48" as="geometry"/>
        </mxCell>
        <mxCell id="msU4wr58rD_FV19tekNM-10" value="&lt;font style=&quot;font-size: 18px&quot; color=&quot;#000000&quot;&gt;英国站广告分组韦恩图&lt;/font&gt;" style="text;html=1;strokeColor=none;fillColor=none;align=left;verticalAlign=middle;whiteSpace=wrap;rounded=0;fontColor=#FFB366;" parent="1" vertex="1">
          <mxGeometry x="305" width="200" height="40" as="geometry"/>
        </mxCell>
        <mxCell id="msU4wr58rD_FV19tekNM-15" value="" style="endArrow=classic;html=1;fontColor=#FFB366;" parent="1" edge="1">
          <mxGeometry width="50" height="50" relative="1" as="geometry">
            <mxPoint x="305" y="209" as="sourcePoint"/>
            <mxPoint x="320" y="269" as="targetPoint"/>
          </mxGeometry>
        </mxCell>
        <mxCell id="msU4wr58rD_FV19tekNM-16" value="&lt;font color=&quot;#000000&quot;&gt;出单词&lt;/font&gt;" style="text;html=1;strokeColor=none;fillColor=none;align=center;verticalAlign=middle;whiteSpace=wrap;rounded=0;fontColor=#FFB366;" parent="1" vertex="1">
          <mxGeometry x="310" y="270" width="40" height="20" as="geometry"/>
        </mxCell>
        <mxCell id="msU4wr58rD_FV19tekNM-18" value="&lt;div style=&quot;text-align: left&quot;&gt;&lt;span style=&quot;color: rgb(0 , 0 , 0)&quot;&gt;&lt;font style=&quot;font-size: 16px&quot;&gt;Step2：归一化&lt;/font&gt;&lt;/span&gt;&lt;/div&gt;" style="text;html=1;strokeColor=none;fillColor=none;align=left;verticalAlign=middle;whiteSpace=wrap;rounded=0;fontColor=#FFB366;" parent="1" vertex="1">
          <mxGeometry y="300" width="140" height="20" as="geometry"/>
        </mxCell>
        <mxCell id="msU4wr58rD_FV19tekNM-19" value="英-客户搜索词&lt;br&gt;445&lt;br&gt;" style="ellipse;whiteSpace=wrap;html=1;" parent="1" vertex="1">
          <mxGeometry x="50" y="350" width="190" height="130" as="geometry"/>
        </mxCell>
        <mxCell id="msU4wr58rD_FV19tekNM-22" value="" style="shape=flexArrow;endArrow=classic;html=1;fontColor=#FFB366;" parent="1" edge="1">
          <mxGeometry width="50" height="50" relative="1" as="geometry">
            <mxPoint x="260" y="437" as="sourcePoint"/>
            <mxPoint x="470" y="437" as="targetPoint"/>
          </mxGeometry>
        </mxCell>
        <mxCell id="msU4wr58rD_FV19tekNM-23" value="归一化变换" style="text;html=1;strokeColor=none;fillColor=none;align=center;verticalAlign=middle;whiteSpace=wrap;rounded=0;fontColor=#000000;fontSize=16;" parent="1" vertex="1">
          <mxGeometry x="313" y="393" width="97" height="20" as="geometry"/>
        </mxCell>
        <mxCell id="msU4wr58rD_FV19tekNM-24" value="英-客户归一化搜索词&lt;br&gt;445&lt;br&gt;" style="ellipse;whiteSpace=wrap;html=1;" parent="1" vertex="1">
          <mxGeometry x="490" y="350" width="190" height="130" as="geometry"/>
        </mxCell>
        <mxCell id="msU4wr58rD_FV19tekNM-25" value="&lt;div&gt;美出单词&lt;/div&gt;&lt;div&gt;264&lt;/div&gt;" style="ellipse;whiteSpace=wrap;html=1;" parent="1" vertex="1">
          <mxGeometry x="50" y="506" width="190" height="130" as="geometry"/>
        </mxCell>
        <mxCell id="msU4wr58rD_FV19tekNM-26" value="" style="shape=flexArrow;endArrow=classic;html=1;fontColor=#FFB366;" parent="1" edge="1">
          <mxGeometry width="50" height="50" relative="1" as="geometry">
            <mxPoint x="260" y="593" as="sourcePoint"/>
            <mxPoint x="470" y="593" as="targetPoint"/>
          </mxGeometry>
        </mxCell>
        <mxCell id="msU4wr58rD_FV19tekNM-27" value="归一化变换" style="text;html=1;strokeColor=none;fillColor=none;align=center;verticalAlign=middle;whiteSpace=wrap;rounded=0;fontColor=#000000;fontSize=16;" parent="1" vertex="1">
          <mxGeometry x="313" y="549" width="97" height="20" as="geometry"/>
        </mxCell>
        <mxCell id="msU4wr58rD_FV19tekNM-28" value="&lt;div&gt;美出单词归一化&lt;/div&gt;&lt;div&gt;264&lt;/div&gt;" style="ellipse;whiteSpace=wrap;html=1;" parent="1" vertex="1">
          <mxGeometry x="490" y="506" width="190" height="130" as="geometry"/>
        </mxCell>
        <mxCell id="msU4wr58rD_FV19tekNM-30" value="" style="ellipse;whiteSpace=wrap;html=1;" parent="1" vertex="1">
          <mxGeometry x="65" y="732" width="260" height="170" as="geometry"/>
        </mxCell>
        <mxCell id="msU4wr58rD_FV19tekNM-31" value="&lt;div style=&quot;text-align: right&quot;&gt;&lt;/div&gt;&lt;span&gt;&lt;br&gt;&lt;/span&gt;" style="ellipse;whiteSpace=wrap;html=1;fillColor=none;" parent="1" vertex="1">
          <mxGeometry x="215" y="732" width="220" height="165" as="geometry"/>
        </mxCell>
        <mxCell id="msU4wr58rD_FV19tekNM-32" value="出单优化" style="text;html=1;strokeColor=none;fillColor=none;align=center;verticalAlign=middle;whiteSpace=wrap;rounded=0;fontColor=#FFB366;" parent="1" vertex="1">
          <mxGeometry x="272.5" y="828" width="30" height="28" as="geometry"/>
        </mxCell>
        <mxCell id="msU4wr58rD_FV19tekNM-33" value="&lt;font color=&quot;#ffb366&quot;&gt;无单词-英&lt;/font&gt;" style="text;html=1;strokeColor=none;fillColor=none;align=center;verticalAlign=middle;whiteSpace=wrap;rounded=0;" parent="1" vertex="1">
          <mxGeometry x="105" y="842" width="40" height="20" as="geometry"/>
        </mxCell>
        <mxCell id="msU4wr58rD_FV19tekNM-35" value="&lt;span&gt;&lt;font color=&quot;#ffb366&quot;&gt;无单词-美出单&lt;/font&gt;&lt;/span&gt;" style="text;html=1;strokeColor=none;fillColor=none;align=center;verticalAlign=middle;whiteSpace=wrap;rounded=0;" parent="1" vertex="1">
          <mxGeometry x="317.5" y="862" width="87" height="10" as="geometry"/>
        </mxCell>
        <mxCell id="msU4wr58rD_FV19tekNM-36" value="&lt;font color=&quot;#00994d&quot;&gt;触顶&lt;/font&gt;" style="ellipse;whiteSpace=wrap;html=1;fillColor=none;fontColor=#FFB366;" parent="1" vertex="1">
          <mxGeometry x="250" y="771" width="35" height="48" as="geometry"/>
        </mxCell>
        <mxCell id="msU4wr58rD_FV19tekNM-37" value="" style="endArrow=classic;html=1;fontColor=#FFB366;" parent="1" edge="1">
          <mxGeometry width="50" height="50" relative="1" as="geometry">
            <mxPoint x="262.5" y="867" as="sourcePoint"/>
            <mxPoint x="277.5" y="927" as="targetPoint"/>
          </mxGeometry>
        </mxCell>
        <mxCell id="msU4wr58rD_FV19tekNM-38" value="&lt;font color=&quot;#000000&quot;&gt;出单词&lt;/font&gt;" style="text;html=1;strokeColor=none;fillColor=none;align=center;verticalAlign=middle;whiteSpace=wrap;rounded=0;fontColor=#FFB366;" parent="1" vertex="1">
          <mxGeometry x="262.5" y="932" width="40" height="20" as="geometry"/>
        </mxCell>
        <mxCell id="msU4wr58rD_FV19tekNM-40" value="&lt;div style=&quot;font-size: 12px&quot;&gt;&lt;font style=&quot;font-size: 12px&quot;&gt;美出单词&lt;/font&gt;&lt;/div&gt;&lt;font style=&quot;font-size: 12px&quot;&gt;归一化&lt;br&gt;264&lt;/font&gt;" style="text;html=1;strokeColor=none;fillColor=none;align=center;verticalAlign=middle;whiteSpace=wrap;rounded=0;fontSize=16;fontColor=#000000;" parent="1" vertex="1">
          <mxGeometry x="340" y="795" width="70" height="45" as="geometry"/>
        </mxCell>
        <mxCell id="pTAZsmyDh6goyxrBhCXm-1" value="&lt;font style=&quot;font-size: 12px&quot;&gt;&lt;span&gt;英归一化客户搜索词&lt;/span&gt;&lt;br&gt;&lt;/font&gt;&lt;span style=&quot;font-size: 12px&quot;&gt;445&lt;/span&gt;" style="text;html=1;strokeColor=none;fillColor=none;align=center;verticalAlign=middle;whiteSpace=wrap;rounded=0;fontSize=16;fontColor=#000000;" parent="1" vertex="1">
          <mxGeometry x="120" y="758.5" width="75" height="35" as="geometry"/>
        </mxCell>
        <mxCell id="pTAZsmyDh6goyxrBhCXm-2" value="" style="shape=curlyBracket;whiteSpace=wrap;html=1;rounded=1;fillColor=none;fontSize=16;fontColor=#000000;align=left;" parent="1" vertex="1">
          <mxGeometry x="510" y="80" width="30" height="150" as="geometry"/>
        </mxCell>
        <mxCell id="pTAZsmyDh6goyxrBhCXm-3" value="出单优化：" style="text;html=1;strokeColor=none;fillColor=none;align=left;verticalAlign=middle;whiteSpace=wrap;rounded=0;fontSize=16;fontColor=#000000;" parent="1" vertex="1">
          <mxGeometry x="550" y="110" width="90" height="30" as="geometry"/>
        </mxCell>
        <mxCell id="pTAZsmyDh6goyxrBhCXm-4" value="&lt;span&gt;无单词-英&lt;/span&gt;" style="text;html=1;strokeColor=none;fillColor=none;align=left;verticalAlign=middle;whiteSpace=wrap;rounded=0;fontSize=16;fontColor=#000000;" parent="1" vertex="1">
          <mxGeometry x="550" y="160" width="130" height="30" as="geometry"/>
        </mxCell>
        <mxCell id="pTAZsmyDh6goyxrBhCXm-5" value="&lt;span&gt;无单词-美出单&lt;/span&gt;" style="text;html=1;strokeColor=none;fillColor=none;align=left;verticalAlign=middle;whiteSpace=wrap;rounded=0;fontSize=16;fontColor=#000000;" parent="1" vertex="1">
          <mxGeometry x="550" y="210" width="130" height="30" as="geometry"/>
        </mxCell>
        <mxCell id="pTAZsmyDh6goyxrBhCXm-6" value="Step1：初始状态分组" style="text;html=1;strokeColor=none;fillColor=none;align=center;verticalAlign=middle;whiteSpace=wrap;rounded=0;fontSize=16;fontColor=#000000;" parent="1" vertex="1">
          <mxGeometry y="40" width="160" height="20" as="geometry"/>
        </mxCell>
        <mxCell id="pTAZsmyDh6goyxrBhCXm-7" value="&lt;div style=&quot;text-align: left&quot;&gt;&lt;span style=&quot;color: rgb(0 , 0 , 0)&quot;&gt;&lt;font style=&quot;font-size: 16px&quot;&gt;Step2：归一化分组修正&lt;/font&gt;&lt;/span&gt;&lt;/div&gt;" style="text;html=1;strokeColor=none;fillColor=none;align=left;verticalAlign=middle;whiteSpace=wrap;rounded=0;fontColor=#FFB366;" parent="1" vertex="1">
          <mxGeometry y="656" width="191" height="24" as="geometry"/>
        </mxCell>
        <mxCell id="pTAZsmyDh6goyxrBhCXm-12" value="出单触顶：" style="text;html=1;strokeColor=none;fillColor=none;align=left;verticalAlign=middle;whiteSpace=wrap;rounded=0;fontSize=16;fontColor=#000000;" parent="1" vertex="1">
          <mxGeometry x="550" y="60" width="130" height="30" as="geometry"/>
        </mxCell>
        <mxCell id="3WaFgph_PIsVKvvev1zi-3" value="&lt;table border=&quot;1&quot; width=&quot;100%&quot; cellpadding=&quot;1&quot; style=&quot;width: 100% ; height: 100% ; border-collapse: collapse&quot;&gt;&lt;tbody&gt;&lt;tr style=&quot;background-color: #a7c942 ; color: #ffffff ; border: 1px solid #98bf21&quot;&gt;&lt;th align=&quot;left&quot;&gt;分组&lt;/th&gt;&lt;th align=&quot;left&quot;&gt;等级&lt;/th&gt;&lt;/tr&gt;&lt;tr style=&quot;border: 1px solid #98bf21&quot;&gt;&lt;td&gt;&lt;span&gt;出单触顶&lt;/span&gt;&lt;/td&gt;&lt;td&gt;4&lt;/td&gt;&lt;/tr&gt;&lt;tr style=&quot;background-color: #eaf2d3 ; border: 1px solid #98bf21&quot;&gt;&lt;td&gt;&lt;span&gt;出单优化&lt;/span&gt;&lt;/td&gt;&lt;td&gt;3&lt;/td&gt;&lt;/tr&gt;&lt;tr style=&quot;border: 1px solid #98bf21&quot;&gt;&lt;td&gt;&lt;span&gt;无单词-英&lt;/span&gt;&lt;/td&gt;&lt;td&gt;2&lt;/td&gt;&lt;/tr&gt;&lt;tr style=&quot;background-color: #eaf2d3 ; border: 1px solid #98bf21&quot;&gt;&lt;td&gt;&lt;span&gt;无单词-美&lt;/span&gt;&lt;br&gt;&lt;/td&gt;&lt;td&gt;1&lt;/td&gt;&lt;/tr&gt;&lt;/tbody&gt;&lt;/table&gt;" style="text;html=1;strokeColor=#c0c0c0;fillColor=#ffffff;overflow=fill;rounded=0;fontSize=16;fontColor=#000000;align=left;" parent="1" vertex="1">
          <mxGeometry x="505" y="744" width="125" height="168" as="geometry"/>
        </mxCell>
      </root>
    </mxGraphModel>
  </diagram>
  <diagram id="vsjdVAbDxWyZJfmi88n0" name="How to get money">
    <mxGraphModel dx="2150" dy="820" grid="1" gridSize="10" guides="1" tooltips="1" connect="1" arrows="1" fold="1" page="1" pageScale="1" pageWidth="827" pageHeight="1169" math="0" shadow="0">
      <root>
        <mxCell id="jgwfLlv_cz_6MUoMTaLH-0"/>
        <mxCell id="jgwfLlv_cz_6MUoMTaLH-1" parent="jgwfLlv_cz_6MUoMTaLH-0"/>
        <mxCell id="jgwfLlv_cz_6MUoMTaLH-45" value="" style="rounded=1;whiteSpace=wrap;html=1;fillColor=none;fontSize=16;fontColor=#000000;align=center;dashed=1;" parent="jgwfLlv_cz_6MUoMTaLH-1" vertex="1">
          <mxGeometry x="-195" y="327.5" width="390.00000000000006" height="60" as="geometry"/>
        </mxCell>
        <mxCell id="jgwfLlv_cz_6MUoMTaLH-4" value="" style="edgeStyle=orthogonalEdgeStyle;rounded=0;orthogonalLoop=1;jettySize=auto;html=1;fontSize=16;fontColor=#000000;exitX=0.5;exitY=1;exitDx=0;exitDy=0;" parent="jgwfLlv_cz_6MUoMTaLH-1" source="jgwfLlv_cz_6MUoMTaLH-2" target="jgwfLlv_cz_6MUoMTaLH-3" edge="1">
          <mxGeometry relative="1" as="geometry"/>
        </mxCell>
        <mxCell id="jgwfLlv_cz_6MUoMTaLH-2" value="净利润" style="rounded=1;whiteSpace=wrap;html=1;fillColor=none;fontSize=16;fontColor=#000000;align=center;" parent="jgwfLlv_cz_6MUoMTaLH-1" vertex="1">
          <mxGeometry x="320" y="30" width="97" height="50" as="geometry"/>
        </mxCell>
        <mxCell id="jgwfLlv_cz_6MUoMTaLH-6" value="" style="edgeStyle=orthogonalEdgeStyle;rounded=0;orthogonalLoop=1;jettySize=auto;html=1;fontSize=16;fontColor=#000000;exitX=0.5;exitY=1;exitDx=0;exitDy=0;" parent="jgwfLlv_cz_6MUoMTaLH-1" source="jgwfLlv_cz_6MUoMTaLH-2" target="jgwfLlv_cz_6MUoMTaLH-5" edge="1">
          <mxGeometry relative="1" as="geometry"/>
        </mxCell>
        <mxCell id="jgwfLlv_cz_6MUoMTaLH-8" value="" style="edgeStyle=orthogonalEdgeStyle;rounded=0;orthogonalLoop=1;jettySize=auto;html=1;fontSize=16;fontColor=#000000;exitX=0.5;exitY=1;exitDx=0;exitDy=0;" parent="jgwfLlv_cz_6MUoMTaLH-1" source="jgwfLlv_cz_6MUoMTaLH-3" target="jgwfLlv_cz_6MUoMTaLH-7" edge="1">
          <mxGeometry relative="1" as="geometry">
            <Array as="points">
              <mxPoint x="199" y="210"/>
              <mxPoint x="42" y="210"/>
            </Array>
          </mxGeometry>
        </mxCell>
        <mxCell id="jgwfLlv_cz_6MUoMTaLH-21" style="edgeStyle=orthogonalEdgeStyle;rounded=0;orthogonalLoop=1;jettySize=auto;html=1;exitX=0.5;exitY=1;exitDx=0;exitDy=0;entryX=0.5;entryY=0;entryDx=0;entryDy=0;fontSize=16;fontColor=#000000;" parent="jgwfLlv_cz_6MUoMTaLH-1" source="jgwfLlv_cz_6MUoMTaLH-3" target="jgwfLlv_cz_6MUoMTaLH-10" edge="1">
          <mxGeometry relative="1" as="geometry">
            <Array as="points">
              <mxPoint x="199" y="210"/>
              <mxPoint x="279" y="210"/>
            </Array>
          </mxGeometry>
        </mxCell>
        <mxCell id="jgwfLlv_cz_6MUoMTaLH-3" value="销售额" style="rounded=1;whiteSpace=wrap;html=1;fillColor=none;fontSize=16;fontColor=#000000;align=center;" parent="jgwfLlv_cz_6MUoMTaLH-1" vertex="1">
          <mxGeometry x="150" y="130" width="97" height="50" as="geometry"/>
        </mxCell>
        <mxCell id="jgwfLlv_cz_6MUoMTaLH-25" value="" style="edgeStyle=orthogonalEdgeStyle;rounded=0;orthogonalLoop=1;jettySize=auto;html=1;fontSize=16;fontColor=#000000;" parent="jgwfLlv_cz_6MUoMTaLH-1" source="jgwfLlv_cz_6MUoMTaLH-7" target="jgwfLlv_cz_6MUoMTaLH-24" edge="1">
          <mxGeometry relative="1" as="geometry">
            <Array as="points">
              <mxPoint x="42" y="345"/>
              <mxPoint x="42" y="345"/>
            </Array>
          </mxGeometry>
        </mxCell>
        <mxCell id="jgwfLlv_cz_6MUoMTaLH-30" style="edgeStyle=orthogonalEdgeStyle;rounded=0;orthogonalLoop=1;jettySize=auto;html=1;exitX=0.5;exitY=1;exitDx=0;exitDy=0;entryX=0.5;entryY=0;entryDx=0;entryDy=0;fontSize=16;fontColor=#000000;" parent="jgwfLlv_cz_6MUoMTaLH-1" source="jgwfLlv_cz_6MUoMTaLH-7" target="jgwfLlv_cz_6MUoMTaLH-28" edge="1">
          <mxGeometry relative="1" as="geometry"/>
        </mxCell>
        <mxCell id="jgwfLlv_cz_6MUoMTaLH-31" style="edgeStyle=orthogonalEdgeStyle;rounded=0;orthogonalLoop=1;jettySize=auto;html=1;exitX=0.5;exitY=1;exitDx=0;exitDy=0;entryX=0.5;entryY=0;entryDx=0;entryDy=0;fontSize=16;fontColor=#000000;" parent="jgwfLlv_cz_6MUoMTaLH-1" source="jgwfLlv_cz_6MUoMTaLH-7" target="jgwfLlv_cz_6MUoMTaLH-22" edge="1">
          <mxGeometry relative="1" as="geometry"/>
        </mxCell>
        <mxCell id="jgwfLlv_cz_6MUoMTaLH-7" value="销量" style="rounded=1;whiteSpace=wrap;html=1;fillColor=none;fontSize=16;fontColor=#000000;align=center;" parent="jgwfLlv_cz_6MUoMTaLH-1" vertex="1">
          <mxGeometry x="-7" y="230" width="97" height="50" as="geometry"/>
        </mxCell>
        <mxCell id="UMnLOSgJBDEmwucBkAcu-17" style="edgeStyle=orthogonalEdgeStyle;rounded=0;orthogonalLoop=1;jettySize=auto;html=1;exitX=0.5;exitY=1;exitDx=0;exitDy=0;entryX=0.1;entryY=0.5;entryDx=0;entryDy=0;entryPerimeter=0;dashed=1;" parent="jgwfLlv_cz_6MUoMTaLH-1" source="jgwfLlv_cz_6MUoMTaLH-24" target="jgwfLlv_cz_6MUoMTaLH-36" edge="1">
          <mxGeometry relative="1" as="geometry">
            <Array as="points">
              <mxPoint x="70" y="370"/>
              <mxPoint x="70" y="440"/>
              <mxPoint x="170" y="440"/>
              <mxPoint x="170" y="522"/>
            </Array>
          </mxGeometry>
        </mxCell>
        <mxCell id="jgwfLlv_cz_6MUoMTaLH-24" value="点击率" style="rounded=1;whiteSpace=wrap;html=1;fillColor=none;fontSize=16;fontColor=#000000;align=center;" parent="jgwfLlv_cz_6MUoMTaLH-1" vertex="1">
          <mxGeometry x="11.5" y="345" width="60" height="25" as="geometry"/>
        </mxCell>
        <mxCell id="UMnLOSgJBDEmwucBkAcu-2" value="" style="edgeStyle=orthogonalEdgeStyle;rounded=0;orthogonalLoop=1;jettySize=auto;html=1;exitX=0.5;exitY=1;exitDx=0;exitDy=0;" parent="jgwfLlv_cz_6MUoMTaLH-1" source="jgwfLlv_cz_6MUoMTaLH-22" target="UMnLOSgJBDEmwucBkAcu-1" edge="1">
          <mxGeometry relative="1" as="geometry"/>
        </mxCell>
        <mxCell id="UMnLOSgJBDEmwucBkAcu-6" value="" style="edgeStyle=orthogonalEdgeStyle;rounded=0;orthogonalLoop=1;jettySize=auto;html=1;" parent="jgwfLlv_cz_6MUoMTaLH-1" source="jgwfLlv_cz_6MUoMTaLH-22" target="UMnLOSgJBDEmwucBkAcu-5" edge="1">
          <mxGeometry relative="1" as="geometry"/>
        </mxCell>
        <mxCell id="jgwfLlv_cz_6MUoMTaLH-22" value="展现" style="rounded=1;whiteSpace=wrap;html=1;fillColor=none;fontSize=16;fontColor=#000000;align=center;" parent="jgwfLlv_cz_6MUoMTaLH-1" vertex="1">
          <mxGeometry x="-80" y="345" width="60" height="25" as="geometry"/>
        </mxCell>
        <mxCell id="UMnLOSgJBDEmwucBkAcu-12" value="" style="edgeStyle=orthogonalEdgeStyle;rounded=0;orthogonalLoop=1;jettySize=auto;html=1;dashed=1;" parent="jgwfLlv_cz_6MUoMTaLH-1" source="UMnLOSgJBDEmwucBkAcu-5" target="UMnLOSgJBDEmwucBkAcu-11" edge="1">
          <mxGeometry relative="1" as="geometry"/>
        </mxCell>
        <mxCell id="UMnLOSgJBDEmwucBkAcu-14" value="" style="edgeStyle=orthogonalEdgeStyle;rounded=0;orthogonalLoop=1;jettySize=auto;html=1;dashed=1;" parent="jgwfLlv_cz_6MUoMTaLH-1" source="UMnLOSgJBDEmwucBkAcu-5" target="UMnLOSgJBDEmwucBkAcu-13" edge="1">
          <mxGeometry relative="1" as="geometry"/>
        </mxCell>
        <mxCell id="UMnLOSgJBDEmwucBkAcu-5" value="广告排名" style="rounded=1;whiteSpace=wrap;html=1;fillColor=none;fontSize=16;fontColor=#000000;align=center;" parent="jgwfLlv_cz_6MUoMTaLH-1" vertex="1">
          <mxGeometry x="-23.5" y="420" width="70" height="28" as="geometry"/>
        </mxCell>
        <mxCell id="UMnLOSgJBDEmwucBkAcu-13" value="质量得分" style="rounded=1;whiteSpace=wrap;html=1;fillColor=none;fontSize=16;fontColor=#000000;align=center;" parent="jgwfLlv_cz_6MUoMTaLH-1" vertex="1">
          <mxGeometry x="19" y="490" width="70" height="28" as="geometry"/>
        </mxCell>
        <mxCell id="7Z1RQLDzIAT3yypdJbZ--5" style="edgeStyle=orthogonalEdgeStyle;rounded=0;orthogonalLoop=1;jettySize=auto;html=1;exitX=0.5;exitY=1;exitDx=0;exitDy=0;fontSize=14;dashed=1;strokeColor=#000000;" parent="jgwfLlv_cz_6MUoMTaLH-1" source="UMnLOSgJBDEmwucBkAcu-11" target="jgwfLlv_cz_6MUoMTaLH-18" edge="1">
          <mxGeometry relative="1" as="geometry">
            <Array as="points">
              <mxPoint x="-35" y="620"/>
              <mxPoint x="747" y="620"/>
            </Array>
          </mxGeometry>
        </mxCell>
        <mxCell id="UMnLOSgJBDEmwucBkAcu-11" value="竞价" style="rounded=1;whiteSpace=wrap;html=1;fillColor=none;fontSize=16;fontColor=#000000;align=center;" parent="jgwfLlv_cz_6MUoMTaLH-1" vertex="1">
          <mxGeometry x="-70" y="490" width="70" height="28" as="geometry"/>
        </mxCell>
        <mxCell id="UMnLOSgJBDEmwucBkAcu-10" value="" style="edgeStyle=orthogonalEdgeStyle;rounded=0;orthogonalLoop=1;jettySize=auto;html=1;dashed=1;" parent="jgwfLlv_cz_6MUoMTaLH-1" source="UMnLOSgJBDEmwucBkAcu-1" target="UMnLOSgJBDEmwucBkAcu-9" edge="1">
          <mxGeometry relative="1" as="geometry"/>
        </mxCell>
        <mxCell id="UMnLOSgJBDEmwucBkAcu-1" value="自然排名" style="rounded=1;whiteSpace=wrap;html=1;fillColor=none;fontSize=16;fontColor=#000000;align=center;" parent="jgwfLlv_cz_6MUoMTaLH-1" vertex="1">
          <mxGeometry x="-160" y="420" width="70" height="28" as="geometry"/>
        </mxCell>
        <mxCell id="UMnLOSgJBDEmwucBkAcu-9" value="A9算法" style="rounded=1;whiteSpace=wrap;html=1;fillColor=none;fontSize=16;fontColor=#000000;align=center;" parent="jgwfLlv_cz_6MUoMTaLH-1" vertex="1">
          <mxGeometry x="-160" y="490" width="70" height="28" as="geometry"/>
        </mxCell>
        <mxCell id="TdriGBWS7Qzf0IPXKY57-5" style="edgeStyle=orthogonalEdgeStyle;rounded=0;orthogonalLoop=1;jettySize=auto;html=1;exitX=0.5;exitY=1;exitDx=0;exitDy=0;entryX=0.58;entryY=0.009;entryDx=0;entryDy=0;entryPerimeter=0;fontSize=16;fontColor=#000000;" parent="jgwfLlv_cz_6MUoMTaLH-1" source="jgwfLlv_cz_6MUoMTaLH-5" target="jgwfLlv_cz_6MUoMTaLH-11" edge="1">
          <mxGeometry relative="1" as="geometry"/>
        </mxCell>
        <mxCell id="TdriGBWS7Qzf0IPXKY57-6" style="edgeStyle=orthogonalEdgeStyle;rounded=0;orthogonalLoop=1;jettySize=auto;html=1;exitX=0.5;exitY=1;exitDx=0;exitDy=0;entryX=0.5;entryY=0;entryDx=0;entryDy=0;fontSize=16;fontColor=#000000;" parent="jgwfLlv_cz_6MUoMTaLH-1" source="jgwfLlv_cz_6MUoMTaLH-5" target="jgwfLlv_cz_6MUoMTaLH-12" edge="1">
          <mxGeometry relative="1" as="geometry"/>
        </mxCell>
        <mxCell id="jgwfLlv_cz_6MUoMTaLH-5" value="成本" style="rounded=1;whiteSpace=wrap;html=1;fillColor=none;fontSize=16;fontColor=#000000;align=center;" parent="jgwfLlv_cz_6MUoMTaLH-1" vertex="1">
          <mxGeometry x="490" y="130" width="97" height="50" as="geometry"/>
        </mxCell>
        <mxCell id="jgwfLlv_cz_6MUoMTaLH-9" value="&lt;font style=&quot;font-size: 25px&quot;&gt;&lt;b&gt;-&lt;/b&gt;&lt;/font&gt;" style="text;html=1;strokeColor=none;fillColor=none;align=center;verticalAlign=middle;whiteSpace=wrap;rounded=0;fontSize=16;fontColor=#000000;" parent="jgwfLlv_cz_6MUoMTaLH-1" vertex="1">
          <mxGeometry x="341" y="133" width="69" height="37" as="geometry"/>
        </mxCell>
        <mxCell id="jgwfLlv_cz_6MUoMTaLH-10" value="售价" style="rounded=1;whiteSpace=wrap;html=1;fillColor=none;fontSize=16;fontColor=#000000;align=center;" parent="jgwfLlv_cz_6MUoMTaLH-1" vertex="1">
          <mxGeometry x="230" y="230" width="97" height="50" as="geometry"/>
        </mxCell>
        <mxCell id="TdriGBWS7Qzf0IPXKY57-4" style="edgeStyle=orthogonalEdgeStyle;rounded=0;orthogonalLoop=1;jettySize=auto;html=1;exitX=0.5;exitY=1;exitDx=0;exitDy=0;entryX=0;entryY=0.5;entryDx=0;entryDy=0;fontSize=16;fontColor=#000000;" parent="jgwfLlv_cz_6MUoMTaLH-1" source="jgwfLlv_cz_6MUoMTaLH-11" target="TdriGBWS7Qzf0IPXKY57-3" edge="1">
          <mxGeometry relative="1" as="geometry">
            <Array as="points">
              <mxPoint x="462" y="366"/>
            </Array>
          </mxGeometry>
        </mxCell>
        <mxCell id="jgwfLlv_cz_6MUoMTaLH-11" value="固定成本" style="rounded=1;whiteSpace=wrap;html=1;fillColor=none;fontSize=16;fontColor=#000000;align=center;" parent="jgwfLlv_cz_6MUoMTaLH-1" vertex="1">
          <mxGeometry x="413" y="230" width="97" height="50" as="geometry"/>
        </mxCell>
        <mxCell id="7Z1RQLDzIAT3yypdJbZ--3" style="edgeStyle=orthogonalEdgeStyle;rounded=0;orthogonalLoop=1;jettySize=auto;html=1;exitX=0.5;exitY=1;exitDx=0;exitDy=0;entryX=0.1;entryY=0.5;entryDx=0;entryDy=0;entryPerimeter=0;fontSize=14;" parent="jgwfLlv_cz_6MUoMTaLH-1" source="jgwfLlv_cz_6MUoMTaLH-12" target="jgwfLlv_cz_6MUoMTaLH-14" edge="1">
          <mxGeometry relative="1" as="geometry"/>
        </mxCell>
        <mxCell id="jgwfLlv_cz_6MUoMTaLH-12" value="可变成本&lt;br&gt;" style="rounded=1;whiteSpace=wrap;html=1;fillColor=none;fontSize=16;fontColor=#000000;align=center;" parent="jgwfLlv_cz_6MUoMTaLH-1" vertex="1">
          <mxGeometry x="590" y="230" width="97" height="50" as="geometry"/>
        </mxCell>
        <mxCell id="jgwfLlv_cz_6MUoMTaLH-19" value="&lt;font style=&quot;font-size: 22px&quot;&gt;&lt;b&gt;×&lt;/b&gt;&lt;/font&gt;" style="text;html=1;strokeColor=none;fillColor=none;align=center;verticalAlign=middle;whiteSpace=wrap;rounded=0;fontSize=16;fontColor=#000000;" parent="jgwfLlv_cz_6MUoMTaLH-1" vertex="1">
          <mxGeometry x="140" y="245" width="40" height="20" as="geometry"/>
        </mxCell>
        <mxCell id="jgwfLlv_cz_6MUoMTaLH-44" style="edgeStyle=orthogonalEdgeStyle;rounded=0;orthogonalLoop=1;jettySize=auto;html=1;exitX=0.5;exitY=1;exitDx=0;exitDy=0;entryX=0.1;entryY=0.5;entryDx=0;entryDy=0;fontSize=16;fontColor=#000000;entryPerimeter=0;dashed=1;" parent="jgwfLlv_cz_6MUoMTaLH-1" source="jgwfLlv_cz_6MUoMTaLH-28" target="jgwfLlv_cz_6MUoMTaLH-41" edge="1">
          <mxGeometry relative="1" as="geometry">
            <Array as="points">
              <mxPoint x="128" y="425"/>
            </Array>
          </mxGeometry>
        </mxCell>
        <mxCell id="jgwfLlv_cz_6MUoMTaLH-28" value="转化率" style="rounded=1;whiteSpace=wrap;html=1;fillColor=none;fontSize=16;fontColor=#000000;align=center;" parent="jgwfLlv_cz_6MUoMTaLH-1" vertex="1">
          <mxGeometry x="96" y="345" width="63" height="24" as="geometry"/>
        </mxCell>
        <mxCell id="jgwfLlv_cz_6MUoMTaLH-32" value="&lt;font style=&quot;font-size: 19px&quot;&gt;×&lt;/font&gt;" style="text;html=1;strokeColor=none;fillColor=none;align=center;verticalAlign=middle;whiteSpace=wrap;rounded=0;fontSize=16;fontColor=#000000;" parent="jgwfLlv_cz_6MUoMTaLH-1" vertex="1">
          <mxGeometry x="-20" y="354.5" width="27" height="11" as="geometry"/>
        </mxCell>
        <mxCell id="jgwfLlv_cz_6MUoMTaLH-33" value="&lt;font style=&quot;font-size: 19px&quot;&gt;×&lt;/font&gt;" style="text;html=1;strokeColor=none;fillColor=none;align=center;verticalAlign=middle;whiteSpace=wrap;rounded=0;fontSize=16;fontColor=#000000;" parent="jgwfLlv_cz_6MUoMTaLH-1" vertex="1">
          <mxGeometry x="79" y="357" width="10" height="5" as="geometry"/>
        </mxCell>
        <mxCell id="jgwfLlv_cz_6MUoMTaLH-49" value="" style="group" parent="jgwfLlv_cz_6MUoMTaLH-1" vertex="1" connectable="0">
          <mxGeometry x="-195" y="327.5" width="390" height="60" as="geometry"/>
        </mxCell>
        <mxCell id="jgwfLlv_cz_6MUoMTaLH-47" value="每个关键词" style="text;html=1;strokeColor=none;fillColor=none;align=center;verticalAlign=middle;whiteSpace=wrap;rounded=0;fontSize=16;fontColor=#000000;" parent="jgwfLlv_cz_6MUoMTaLH-49" vertex="1">
          <mxGeometry x="10.323529411764707" y="8.450704225352114" width="104.38235294117648" height="4.225352112676057" as="geometry"/>
        </mxCell>
        <mxCell id="9DV_nNIq391G5jqzggg0-0" value="" style="group" parent="jgwfLlv_cz_6MUoMTaLH-1" vertex="1" connectable="0">
          <mxGeometry x="667" y="358" width="160" height="130" as="geometry"/>
        </mxCell>
        <mxCell id="jgwfLlv_cz_6MUoMTaLH-14" value="" style="shape=curlyBracket;whiteSpace=wrap;html=1;rounded=1;fillColor=none;fontSize=16;fontColor=#000000;align=center;" parent="9DV_nNIq391G5jqzggg0-0" vertex="1">
          <mxGeometry y="21.08251996450754" width="11.053689348262992" height="65.59006211180125" as="geometry"/>
        </mxCell>
        <mxCell id="jgwfLlv_cz_6MUoMTaLH-18" value="&lt;ul&gt;&lt;li&gt;亚马逊站内费用&lt;/li&gt;&lt;li&gt;产品成本&lt;/li&gt;&lt;li&gt;人工成本&lt;/li&gt;&lt;li&gt;营销成本&lt;/li&gt;&lt;/ul&gt;" style="text;strokeColor=none;fillColor=none;html=1;whiteSpace=wrap;verticalAlign=middle;overflow=hidden;fontSize=16;fontColor=#000000;align=left;" parent="9DV_nNIq391G5jqzggg0-0" vertex="1">
          <mxGeometry y="-14" width="160" height="130" as="geometry"/>
        </mxCell>
        <mxCell id="TdriGBWS7Qzf0IPXKY57-1" value="" style="group" parent="jgwfLlv_cz_6MUoMTaLH-1" vertex="1" connectable="0">
          <mxGeometry x="462.5" y="308" width="172" height="115" as="geometry"/>
        </mxCell>
        <mxCell id="TdriGBWS7Qzf0IPXKY57-2" value="" style="shape=curlyBracket;whiteSpace=wrap;html=1;rounded=1;fillColor=none;fontSize=16;fontColor=#000000;align=center;" parent="TdriGBWS7Qzf0IPXKY57-1" vertex="1">
          <mxGeometry y="22.5" width="20" height="70" as="geometry"/>
        </mxCell>
        <mxCell id="TdriGBWS7Qzf0IPXKY57-3" value="&lt;ul&gt;&lt;li&gt;厂房租金&lt;/li&gt;&lt;li&gt;管理费&lt;/li&gt;&lt;li&gt;宽带费用&lt;/li&gt;&lt;li&gt;账号费用&lt;/li&gt;&lt;/ul&gt;" style="text;strokeColor=none;fillColor=none;html=1;whiteSpace=wrap;verticalAlign=middle;overflow=hidden;fontSize=16;fontColor=#000000;align=left;" parent="TdriGBWS7Qzf0IPXKY57-1" vertex="1">
          <mxGeometry x="10" width="162" height="115" as="geometry"/>
        </mxCell>
        <mxCell id="TdriGBWS7Qzf0IPXKY57-7" value="&lt;font style=&quot;font-size: 22px&quot;&gt;&lt;b&gt;+&lt;/b&gt;&lt;/font&gt;" style="text;html=1;resizable=0;points=[];autosize=1;align=left;verticalAlign=top;spacingTop=-4;fontSize=16;fontColor=#000000;" parent="jgwfLlv_cz_6MUoMTaLH-1" vertex="1">
          <mxGeometry x="538.5" y="245" width="30" height="20" as="geometry"/>
        </mxCell>
        <mxCell id="jgwfLlv_cz_6MUoMTaLH-41" value="" style="shape=curlyBracket;whiteSpace=wrap;html=1;rounded=1;fillColor=none;fontSize=16;fontColor=#000000;align=center;" parent="jgwfLlv_cz_6MUoMTaLH-1" vertex="1">
          <mxGeometry x="211.71205184612643" y="395" width="33.093525179856115" height="59.99999999999999" as="geometry"/>
        </mxCell>
        <mxCell id="jgwfLlv_cz_6MUoMTaLH-42" value="&lt;ul&gt;&lt;li style=&quot;text-align: left&quot;&gt;价格（值不值）&lt;/li&gt;&lt;li style=&quot;text-align: left&quot;&gt;图片&lt;/li&gt;&lt;li style=&quot;text-align: left&quot;&gt;文案&lt;/li&gt;&lt;/ul&gt;" style="text;strokeColor=none;fillColor=none;html=1;whiteSpace=wrap;verticalAlign=middle;overflow=hidden;fontSize=16;fontColor=#000000;align=center;" parent="jgwfLlv_cz_6MUoMTaLH-1" vertex="1">
          <mxGeometry x="211.5" y="378" width="175" height="77" as="geometry"/>
        </mxCell>
        <mxCell id="jgwfLlv_cz_6MUoMTaLH-37" value="&lt;ul&gt;&lt;li style=&quot;text-align: left&quot;&gt;&lt;span&gt;主图&lt;/span&gt;&lt;br&gt;&lt;/li&gt;&lt;li style=&quot;text-align: left&quot;&gt;&lt;span&gt;价格（匹配心理价位）&lt;/span&gt;&lt;/li&gt;&lt;li style=&quot;text-align: left&quot;&gt;&lt;span&gt;review&lt;/span&gt;&lt;/li&gt;&lt;li style=&quot;text-align: left&quot;&gt;&lt;span&gt;标题&lt;/span&gt;&lt;/li&gt;&lt;/ul&gt;" style="text;strokeColor=none;fillColor=none;html=1;whiteSpace=wrap;verticalAlign=middle;overflow=hidden;fontSize=16;fontColor=#000000;align=center;" parent="jgwfLlv_cz_6MUoMTaLH-1" vertex="1">
          <mxGeometry x="170" y="468" width="230" height="113" as="geometry"/>
        </mxCell>
        <mxCell id="UMnLOSgJBDEmwucBkAcu-15" value="" style="group" parent="jgwfLlv_cz_6MUoMTaLH-1" vertex="1" connectable="0">
          <mxGeometry x="90.5" y="387.5" width="110" height="170" as="geometry"/>
        </mxCell>
        <mxCell id="jgwfLlv_cz_6MUoMTaLH-36" value="" style="shape=curlyBracket;whiteSpace=wrap;html=1;rounded=1;fillColor=none;fontSize=16;fontColor=#000000;align=center;" parent="UMnLOSgJBDEmwucBkAcu-15" vertex="1">
          <mxGeometry x="91" y="110" width="19" height="60" as="geometry"/>
        </mxCell>
        <mxCell id="aL-AXK8htOpVHNka0qDV-0" value="&lt;h1&gt;How to get money&lt;/h1&gt;&lt;p style=&quot;font-size: 16px&quot;&gt;&lt;/p&gt;&lt;ul style=&quot;font-size: 16px&quot;&gt;&lt;li&gt;提高排名&lt;/li&gt;&lt;li&gt;降低营销成本&lt;/li&gt;&lt;li&gt;稳定价格&lt;/li&gt;&lt;/ul&gt;&lt;p&gt;&lt;/p&gt;" style="text;html=1;strokeColor=none;fillColor=none;spacing=5;spacingTop=-20;whiteSpace=wrap;overflow=hidden;rounded=0;" parent="jgwfLlv_cz_6MUoMTaLH-1" vertex="1">
          <mxGeometry x="-400" y="22.5" width="234" height="115" as="geometry"/>
        </mxCell>
        <mxCell id="7Z1RQLDzIAT3yypdJbZ--6" style="edgeStyle=orthogonalEdgeStyle;rounded=0;orthogonalLoop=1;jettySize=auto;html=1;exitX=0.5;exitY=1;exitDx=0;exitDy=0;entryX=0.5;entryY=1;entryDx=0;entryDy=0;dashed=1;strokeColor=#000000;fontSize=14;" parent="jgwfLlv_cz_6MUoMTaLH-1" source="jgwfLlv_cz_6MUoMTaLH-18" target="UMnLOSgJBDEmwucBkAcu-11" edge="1">
          <mxGeometry relative="1" as="geometry">
            <Array as="points">
              <mxPoint x="747" y="620"/>
              <mxPoint x="-35" y="620"/>
            </Array>
          </mxGeometry>
        </mxCell>
      </root>
    </mxGraphModel>
  </diagram>
  <diagram id="egn9BLWIhyDV8uYe_cEO" name="How to control advertising costs">
    <mxGraphModel dx="1323" dy="820" grid="1" gridSize="10" guides="1" tooltips="1" connect="1" arrows="1" fold="1" page="1" pageScale="1" pageWidth="1169" pageHeight="827" math="0" shadow="0">
      <root>
        <mxCell id="aFUeFcgqcbqpGKsalu1n-0"/>
        <mxCell id="aFUeFcgqcbqpGKsalu1n-1" parent="aFUeFcgqcbqpGKsalu1n-0"/>
        <mxCell id="m0iOx4hA5laEJ2gC4NiB-0" value="" style="ellipse;shape=cloud;whiteSpace=wrap;html=1;" parent="aFUeFcgqcbqpGKsalu1n-1" vertex="1">
          <mxGeometry x="169" y="40" width="450" height="250" as="geometry"/>
        </mxCell>
        <mxCell id="m0iOx4hA5laEJ2gC4NiB-1" value="词根" style="text;html=1;strokeColor=none;fillColor=none;align=center;verticalAlign=middle;whiteSpace=wrap;rounded=0;" parent="aFUeFcgqcbqpGKsalu1n-1" vertex="1">
          <mxGeometry x="209" y="135" width="40" height="20" as="geometry"/>
        </mxCell>
        <mxCell id="m0iOx4hA5laEJ2gC4NiB-2" value="merchantwords" style="text;html=1;strokeColor=none;fillColor=none;align=center;verticalAlign=middle;whiteSpace=wrap;rounded=0;" parent="aFUeFcgqcbqpGKsalu1n-1" vertex="1">
          <mxGeometry x="274" y="120" width="60" height="30" as="geometry"/>
        </mxCell>
        <mxCell id="m0iOx4hA5laEJ2gC4NiB-3" value="Semrush =Google Search" style="text;html=1;strokeColor=none;fillColor=none;align=center;verticalAlign=middle;whiteSpace=wrap;rounded=0;" parent="aFUeFcgqcbqpGKsalu1n-1" vertex="1">
          <mxGeometry x="374" y="135" width="160" height="30" as="geometry"/>
        </mxCell>
        <mxCell id="m0iOx4hA5laEJ2gC4NiB-4" value="亚马逊下拉词" style="text;html=1;strokeColor=none;fillColor=none;align=center;verticalAlign=middle;whiteSpace=wrap;rounded=0;" parent="aFUeFcgqcbqpGKsalu1n-1" vertex="1">
          <mxGeometry x="249" y="165" width="105" height="35" as="geometry"/>
        </mxCell>
        <mxCell id="m0iOx4hA5laEJ2gC4NiB-5" value="竞争对手关键词" style="text;html=1;strokeColor=none;fillColor=none;align=center;verticalAlign=middle;whiteSpace=wrap;rounded=0;" parent="aFUeFcgqcbqpGKsalu1n-1" vertex="1">
          <mxGeometry x="394" y="182.5" width="110" height="30" as="geometry"/>
        </mxCell>
        <mxCell id="m0iOx4hA5laEJ2gC4NiB-6" value="亚马逊推荐词" style="text;html=1;strokeColor=none;fillColor=none;align=center;verticalAlign=middle;whiteSpace=wrap;rounded=0;" parent="aFUeFcgqcbqpGKsalu1n-1" vertex="1">
          <mxGeometry x="309" y="222.5" width="90" height="15" as="geometry"/>
        </mxCell>
        <mxCell id="m0iOx4hA5laEJ2gC4NiB-7" value="&lt;h1&gt;关键词&lt;/h1&gt;&lt;p&gt;每一个关键词代表一个需求&lt;/p&gt;&lt;p&gt;工具中的关键词存在软件分词技术&lt;/p&gt;&lt;p&gt;不代表用户需求&lt;/p&gt;" style="text;html=1;strokeColor=none;fillColor=none;spacing=5;spacingTop=-20;whiteSpace=wrap;overflow=hidden;rounded=0;" parent="aFUeFcgqcbqpGKsalu1n-1" vertex="1">
          <mxGeometry x="15" y="10" width="190" height="120" as="geometry"/>
        </mxCell>
        <mxCell id="m0iOx4hA5laEJ2gC4NiB-11" value="" style="endArrow=classic;html=1;" parent="aFUeFcgqcbqpGKsalu1n-1" edge="1">
          <mxGeometry width="50" height="50" relative="1" as="geometry">
            <mxPoint x="659" y="190" as="sourcePoint"/>
            <mxPoint x="769" y="120" as="targetPoint"/>
          </mxGeometry>
        </mxCell>
        <mxCell id="m0iOx4hA5laEJ2gC4NiB-12" value="" style="endArrow=classic;html=1;" parent="aFUeFcgqcbqpGKsalu1n-1" edge="1">
          <mxGeometry width="50" height="50" relative="1" as="geometry">
            <mxPoint x="659" y="230" as="sourcePoint"/>
            <mxPoint x="759" y="280" as="targetPoint"/>
          </mxGeometry>
        </mxCell>
        <mxCell id="m0iOx4hA5laEJ2gC4NiB-13" value="" style="ellipse;shape=cloud;whiteSpace=wrap;html=1;" parent="aFUeFcgqcbqpGKsalu1n-1" vertex="1">
          <mxGeometry x="810" y="237.5" width="240" height="110" as="geometry"/>
        </mxCell>
        <mxCell id="m0iOx4hA5laEJ2gC4NiB-14" value="" style="ellipse;shape=cloud;whiteSpace=wrap;html=1;" parent="aFUeFcgqcbqpGKsalu1n-1" vertex="1">
          <mxGeometry x="790" y="40" width="350" height="168" as="geometry"/>
        </mxCell>
        <mxCell id="m0iOx4hA5laEJ2gC4NiB-15" value="与我们产品一致的关键词" style="text;html=1;strokeColor=none;fillColor=none;align=center;verticalAlign=middle;whiteSpace=wrap;rounded=0;" parent="aFUeFcgqcbqpGKsalu1n-1" vertex="1">
          <mxGeometry x="870" y="275" width="90" height="35" as="geometry"/>
        </mxCell>
        <mxCell id="m0iOx4hA5laEJ2gC4NiB-16" value="干扰关键词" style="text;html=1;strokeColor=none;fillColor=none;align=center;verticalAlign=middle;whiteSpace=wrap;rounded=0;" parent="aFUeFcgqcbqpGKsalu1n-1" vertex="1">
          <mxGeometry x="869" y="91.5" width="100" height="20" as="geometry"/>
        </mxCell>
        <mxCell id="m0iOx4hA5laEJ2gC4NiB-19" value="品牌关键词" style="text;html=1;strokeColor=none;fillColor=none;align=center;verticalAlign=middle;whiteSpace=wrap;rounded=0;" parent="aFUeFcgqcbqpGKsalu1n-1" vertex="1">
          <mxGeometry x="874" y="126.5" width="80" height="30" as="geometry"/>
        </mxCell>
        <mxCell id="m0iOx4hA5laEJ2gC4NiB-20" value="其他属性关键词" style="text;html=1;strokeColor=none;fillColor=none;align=center;verticalAlign=middle;whiteSpace=wrap;rounded=0;" parent="aFUeFcgqcbqpGKsalu1n-1" vertex="1">
          <mxGeometry x="969" y="111.5" width="100" height="35" as="geometry"/>
        </mxCell>
        <mxCell id="m0iOx4hA5laEJ2gC4NiB-22" value="如果先做这一步工作量巨大" style="text;html=1;strokeColor=#b85450;fillColor=#f8cecc;align=center;verticalAlign=middle;whiteSpace=wrap;rounded=0;" parent="aFUeFcgqcbqpGKsalu1n-1" vertex="1">
          <mxGeometry x="209" y="299" width="170" height="21" as="geometry"/>
        </mxCell>
        <mxCell id="AYYZqxGhM7olisChnouq-0" value="&lt;h1&gt;与我们产品一致的关键词&lt;/h1&gt;&lt;p&gt;一致的关键词 = 真实购买?&lt;/p&gt;&lt;p&gt;需要测试&lt;/p&gt;&lt;p&gt;&lt;br&gt;&lt;/p&gt;" style="text;html=1;strokeColor=none;fillColor=none;spacing=5;spacingTop=-20;whiteSpace=wrap;overflow=hidden;rounded=0;" parent="aFUeFcgqcbqpGKsalu1n-1" vertex="1">
          <mxGeometry x="20" y="370" width="300" height="100" as="geometry"/>
        </mxCell>
        <mxCell id="AYYZqxGhM7olisChnouq-1" value="&lt;h1&gt;&lt;font style=&quot;font-size: 20px&quot;&gt;Step1（推新期）&lt;/font&gt;&lt;/h1&gt;&lt;p&gt;&lt;span style=&quot;text-align: center&quot;&gt;所有listing优化完成后开启广告&lt;/span&gt;&lt;br&gt;&lt;/p&gt;&lt;p&gt;自动广告打开跑词&lt;/p&gt;&lt;p&gt;手动广告测真实购买（效果慢，不建议采用&lt;/p&gt;&lt;p&gt;）&lt;/p&gt;" style="text;html=1;strokeColor=none;fillColor=none;spacing=5;spacingTop=-20;whiteSpace=wrap;overflow=hidden;rounded=0;" parent="aFUeFcgqcbqpGKsalu1n-1" vertex="1">
          <mxGeometry x="39" y="466" width="181" height="134" as="geometry"/>
        </mxCell>
        <mxCell id="AYYZqxGhM7olisChnouq-5" value="" style="shape=flexArrow;endArrow=classic;html=1;" parent="aFUeFcgqcbqpGKsalu1n-1" edge="1">
          <mxGeometry width="50" height="50" relative="1" as="geometry">
            <mxPoint x="224" y="550" as="sourcePoint"/>
            <mxPoint x="364" y="550" as="targetPoint"/>
          </mxGeometry>
        </mxCell>
        <mxCell id="AYYZqxGhM7olisChnouq-6" value="客户搜索词" style="shape=dataStorage;whiteSpace=wrap;html=1;" parent="aFUeFcgqcbqpGKsalu1n-1" vertex="1">
          <mxGeometry x="388" y="504" width="116" height="70" as="geometry"/>
        </mxCell>
        <mxCell id="AYYZqxGhM7olisChnouq-7" value="跑一个月" style="text;html=1;strokeColor=none;fillColor=none;align=center;verticalAlign=middle;whiteSpace=wrap;rounded=0;" parent="aFUeFcgqcbqpGKsalu1n-1" vertex="1">
          <mxGeometry x="253" y="513" width="61" height="20" as="geometry"/>
        </mxCell>
        <mxCell id="AYYZqxGhM7olisChnouq-8" value="每天检查" style="text;html=1;strokeColor=none;fillColor=none;align=center;verticalAlign=middle;whiteSpace=wrap;rounded=0;" parent="aFUeFcgqcbqpGKsalu1n-1" vertex="1">
          <mxGeometry x="253" y="564" width="60" height="20" as="geometry"/>
        </mxCell>
        <mxCell id="AYYZqxGhM7olisChnouq-9" value="自动广告不加否定" style="text;html=1;strokeColor=none;fillColor=none;align=left;verticalAlign=middle;whiteSpace=wrap;rounded=0;" parent="aFUeFcgqcbqpGKsalu1n-1" vertex="1">
          <mxGeometry x="39" y="590" width="160" height="60" as="geometry"/>
        </mxCell>
        <mxCell id="AYYZqxGhM7olisChnouq-10" value="&lt;h1&gt;&lt;font style=&quot;font-size: 20px&quot;&gt;Step2&amp;nbsp; （稳定期）&lt;/font&gt;&lt;/h1&gt;&lt;p&gt;自动广告跑词结束，回归理性价位（不能亏）&lt;/p&gt;&lt;p&gt;手动广告调价促进自然排名（手动/自动费用相当）&lt;/p&gt;" style="text;html=1;strokeColor=none;fillColor=none;spacing=5;spacingTop=-20;whiteSpace=wrap;overflow=hidden;rounded=0;" parent="aFUeFcgqcbqpGKsalu1n-1" vertex="1">
          <mxGeometry x="38" y="660" width="302" height="110" as="geometry"/>
        </mxCell>
        <mxCell id="AYYZqxGhM7olisChnouq-11" value="&lt;h1&gt;&lt;font style=&quot;font-size: 20px&quot;&gt;Step3&amp;nbsp; （变革期/衰退期）&lt;/font&gt;&lt;/h1&gt;&lt;p&gt;产品得到反馈，做了改良&lt;/p&gt;&lt;p&gt;提高售价，获取平均线上的利润&lt;/p&gt;&lt;p&gt;更新空间有限（指尖陀螺）或其他产品替代（MP3&lt;span&gt;）&lt;/span&gt;&lt;/p&gt;" style="text;html=1;strokeColor=none;fillColor=none;spacing=5;spacingTop=-20;whiteSpace=wrap;overflow=hidden;rounded=0;align=left;" parent="aFUeFcgqcbqpGKsalu1n-1" vertex="1">
          <mxGeometry x="40" y="800" width="290" height="120" as="geometry"/>
        </mxCell>
        <mxCell id="AYYZqxGhM7olisChnouq-12" value="" style="endArrow=classic;html=1;" parent="aFUeFcgqcbqpGKsalu1n-1" edge="1">
          <mxGeometry width="50" height="50" relative="1" as="geometry">
            <mxPoint x="730" y="830" as="sourcePoint"/>
            <mxPoint x="730" y="510" as="targetPoint"/>
          </mxGeometry>
        </mxCell>
        <mxCell id="AYYZqxGhM7olisChnouq-13" value="" style="endArrow=classic;html=1;" parent="aFUeFcgqcbqpGKsalu1n-1" edge="1">
          <mxGeometry width="50" height="50" relative="1" as="geometry">
            <mxPoint x="730" y="830" as="sourcePoint"/>
            <mxPoint x="1200" y="830" as="targetPoint"/>
          </mxGeometry>
        </mxCell>
        <mxCell id="AYYZqxGhM7olisChnouq-15" value="时间" style="text;html=1;resizable=0;points=[];autosize=1;align=left;verticalAlign=top;spacingTop=-4;" parent="aFUeFcgqcbqpGKsalu1n-1" vertex="1">
          <mxGeometry x="1190" y="843" width="40" height="20" as="geometry"/>
        </mxCell>
        <mxCell id="AYYZqxGhM7olisChnouq-16" value="日销量" style="text;html=1;strokeColor=none;fillColor=none;align=center;verticalAlign=middle;whiteSpace=wrap;rounded=0;" parent="aFUeFcgqcbqpGKsalu1n-1" vertex="1">
          <mxGeometry x="680" y="500" width="40" height="20" as="geometry"/>
        </mxCell>
        <mxCell id="AYYZqxGhM7olisChnouq-25" value="" style="endArrow=classic;html=1;edgeStyle=orthogonalEdgeStyle;curved=1;comic=0;" parent="aFUeFcgqcbqpGKsalu1n-1" edge="1">
          <mxGeometry width="50" height="50" relative="1" as="geometry">
            <mxPoint x="730" y="830" as="sourcePoint"/>
            <mxPoint x="1200" y="520" as="targetPoint"/>
            <Array as="points">
              <mxPoint x="730" y="690"/>
              <mxPoint x="1020" y="690"/>
              <mxPoint x="1020" y="580"/>
              <mxPoint x="1160" y="580"/>
            </Array>
          </mxGeometry>
        </mxCell>
        <mxCell id="AYYZqxGhM7olisChnouq-26" value="" style="endArrow=none;dashed=1;html=1;" parent="aFUeFcgqcbqpGKsalu1n-1" edge="1">
          <mxGeometry width="50" height="50" relative="1" as="geometry">
            <mxPoint x="810" y="830" as="sourcePoint"/>
            <mxPoint x="810" y="700" as="targetPoint"/>
            <Array as="points">
              <mxPoint x="810" y="770"/>
            </Array>
          </mxGeometry>
        </mxCell>
        <mxCell id="AYYZqxGhM7olisChnouq-27" value="跑词期" style="text;html=1;strokeColor=none;fillColor=none;align=center;verticalAlign=middle;whiteSpace=wrap;rounded=0;" parent="aFUeFcgqcbqpGKsalu1n-1" vertex="1">
          <mxGeometry x="764" y="760" width="40" height="20" as="geometry"/>
        </mxCell>
        <mxCell id="AYYZqxGhM7olisChnouq-28" value="" style="endArrow=none;dashed=1;html=1;" parent="aFUeFcgqcbqpGKsalu1n-1" edge="1">
          <mxGeometry width="50" height="50" relative="1" as="geometry">
            <mxPoint x="1000" y="830" as="sourcePoint"/>
            <mxPoint x="1000" y="670" as="targetPoint"/>
            <Array as="points">
              <mxPoint x="1000" y="750"/>
            </Array>
          </mxGeometry>
        </mxCell>
        <mxCell id="AYYZqxGhM7olisChnouq-29" value="稳定期" style="text;html=1;strokeColor=none;fillColor=none;align=center;verticalAlign=middle;whiteSpace=wrap;rounded=0;" parent="aFUeFcgqcbqpGKsalu1n-1" vertex="1">
          <mxGeometry x="879" y="750" width="40" height="20" as="geometry"/>
        </mxCell>
        <mxCell id="AYYZqxGhM7olisChnouq-30" value="1-2月" style="text;html=1;strokeColor=none;fillColor=none;align=center;verticalAlign=middle;whiteSpace=wrap;rounded=0;" parent="aFUeFcgqcbqpGKsalu1n-1" vertex="1">
          <mxGeometry x="784" y="832" width="46" height="42" as="geometry"/>
        </mxCell>
        <mxCell id="AYYZqxGhM7olisChnouq-31" value="1-2季度" style="text;html=1;strokeColor=none;fillColor=none;align=center;verticalAlign=middle;whiteSpace=wrap;rounded=0;" parent="aFUeFcgqcbqpGKsalu1n-1" vertex="1">
          <mxGeometry x="978" y="843" width="50" height="22" as="geometry"/>
        </mxCell>
        <mxCell id="AYYZqxGhM7olisChnouq-32" value="" style="endArrow=classic;html=1;" parent="aFUeFcgqcbqpGKsalu1n-1" edge="1">
          <mxGeometry width="50" height="50" relative="1" as="geometry">
            <mxPoint x="960" y="620" as="sourcePoint"/>
            <mxPoint x="990" y="660" as="targetPoint"/>
          </mxGeometry>
        </mxCell>
        <mxCell id="AYYZqxGhM7olisChnouq-33" value="二次改良" style="text;html=1;strokeColor=none;fillColor=none;align=center;verticalAlign=middle;whiteSpace=wrap;rounded=0;" parent="aFUeFcgqcbqpGKsalu1n-1" vertex="1">
          <mxGeometry x="930" y="599" width="50" height="20" as="geometry"/>
        </mxCell>
        <mxCell id="AYYZqxGhM7olisChnouq-34" value="" style="endArrow=none;dashed=1;html=1;" parent="aFUeFcgqcbqpGKsalu1n-1" edge="1">
          <mxGeometry width="50" height="50" relative="1" as="geometry">
            <mxPoint x="1050" y="830" as="sourcePoint"/>
            <mxPoint x="1050" y="590" as="targetPoint"/>
          </mxGeometry>
        </mxCell>
        <mxCell id="AYYZqxGhM7olisChnouq-35" value="推“新品”" style="text;html=1;strokeColor=none;fillColor=none;align=center;verticalAlign=middle;whiteSpace=wrap;rounded=0;" parent="aFUeFcgqcbqpGKsalu1n-1" vertex="1">
          <mxGeometry x="1009.5" y="705" width="27" height="55" as="geometry"/>
        </mxCell>
        <mxCell id="AYYZqxGhM7olisChnouq-36" value="二次稳定" style="text;html=1;strokeColor=none;fillColor=none;align=center;verticalAlign=middle;whiteSpace=wrap;rounded=0;" parent="aFUeFcgqcbqpGKsalu1n-1" vertex="1">
          <mxGeometry x="1068" y="702" width="70" height="25" as="geometry"/>
        </mxCell>
        <mxCell id="AYYZqxGhM7olisChnouq-37" value="..." style="text;html=1;strokeColor=none;fillColor=none;align=center;verticalAlign=middle;whiteSpace=wrap;rounded=0;" parent="aFUeFcgqcbqpGKsalu1n-1" vertex="1">
          <mxGeometry x="1190" y="685" width="40" height="20" as="geometry"/>
        </mxCell>
        <mxCell id="D91PJLBFM3zlLrVeym7b-0" value="&lt;h1&gt;&lt;font style=&quot;font-size: 20px&quot;&gt;如何在每一个环节做好广告活动&lt;/font&gt;&lt;/h1&gt;&lt;p&gt;以目标为导向（e.g.跑出20个出单关键词）&lt;/p&gt;" style="text;html=1;strokeColor=none;fillColor=none;spacing=5;spacingTop=-20;whiteSpace=wrap;overflow=hidden;rounded=0;" parent="aFUeFcgqcbqpGKsalu1n-1" vertex="1">
          <mxGeometry x="15" y="950" width="305" height="80" as="geometry"/>
        </mxCell>
        <mxCell id="D91PJLBFM3zlLrVeym7b-1" value="&lt;h1&gt;&lt;font style=&quot;font-size: 20px&quot;&gt;Step1（推新期）&lt;/font&gt;&lt;/h1&gt;&lt;p&gt;不降价&lt;/p&gt;&lt;p&gt;只加否定词根&lt;/p&gt;" style="text;html=1;strokeColor=none;fillColor=none;spacing=5;spacingTop=-20;whiteSpace=wrap;overflow=hidden;rounded=0;" parent="aFUeFcgqcbqpGKsalu1n-1" vertex="1">
          <mxGeometry x="30" y="1030" width="170" height="110" as="geometry"/>
        </mxCell>
        <mxCell id="D91PJLBFM3zlLrVeym7b-13" style="edgeStyle=orthogonalEdgeStyle;rounded=0;comic=0;orthogonalLoop=1;jettySize=auto;html=1;exitX=1;exitY=0.5;exitDx=0;exitDy=0;entryX=0.5;entryY=0;entryDx=0;entryDy=0;" parent="aFUeFcgqcbqpGKsalu1n-1" source="D91PJLBFM3zlLrVeym7b-2" target="D91PJLBFM3zlLrVeym7b-5" edge="1">
          <mxGeometry relative="1" as="geometry"/>
        </mxCell>
        <mxCell id="D91PJLBFM3zlLrVeym7b-2" value="自动广告" style="rounded=0;whiteSpace=wrap;html=1;align=left;" parent="aFUeFcgqcbqpGKsalu1n-1" vertex="1">
          <mxGeometry x="141" y="1193" width="61" height="30" as="geometry"/>
        </mxCell>
        <mxCell id="D91PJLBFM3zlLrVeym7b-12" style="edgeStyle=orthogonalEdgeStyle;rounded=0;comic=0;orthogonalLoop=1;jettySize=auto;html=1;exitX=1;exitY=0.5;exitDx=0;exitDy=0;entryX=0.5;entryY=1;entryDx=0;entryDy=0;" parent="aFUeFcgqcbqpGKsalu1n-1" source="D91PJLBFM3zlLrVeym7b-3" target="D91PJLBFM3zlLrVeym7b-5" edge="1">
          <mxGeometry relative="1" as="geometry"/>
        </mxCell>
        <mxCell id="D91PJLBFM3zlLrVeym7b-3" value="手动广告" style="rounded=0;whiteSpace=wrap;html=1;align=left;" parent="aFUeFcgqcbqpGKsalu1n-1" vertex="1">
          <mxGeometry x="141" y="1275" width="61" height="30" as="geometry"/>
        </mxCell>
        <mxCell id="D91PJLBFM3zlLrVeym7b-14" style="edgeStyle=orthogonalEdgeStyle;rounded=0;comic=0;orthogonalLoop=1;jettySize=auto;html=1;exitX=1;exitY=0.5;exitDx=0;exitDy=0;entryX=0;entryY=0.5;entryDx=0;entryDy=0;" parent="aFUeFcgqcbqpGKsalu1n-1" source="D91PJLBFM3zlLrVeym7b-5" target="D91PJLBFM3zlLrVeym7b-7" edge="1">
          <mxGeometry relative="1" as="geometry"/>
        </mxCell>
        <mxCell id="D91PJLBFM3zlLrVeym7b-15" style="edgeStyle=orthogonalEdgeStyle;rounded=0;comic=0;orthogonalLoop=1;jettySize=auto;html=1;exitX=1;exitY=0.5;exitDx=0;exitDy=0;entryX=0;entryY=0.5;entryDx=0;entryDy=0;" parent="aFUeFcgqcbqpGKsalu1n-1" source="D91PJLBFM3zlLrVeym7b-5" target="D91PJLBFM3zlLrVeym7b-8" edge="1">
          <mxGeometry relative="1" as="geometry"/>
        </mxCell>
        <mxCell id="D91PJLBFM3zlLrVeym7b-5" value="客户搜索词" style="rounded=1;whiteSpace=wrap;html=1;align=left;" parent="aFUeFcgqcbqpGKsalu1n-1" vertex="1">
          <mxGeometry x="261" y="1234" width="72" height="35" as="geometry"/>
        </mxCell>
        <mxCell id="D91PJLBFM3zlLrVeym7b-16" style="edgeStyle=orthogonalEdgeStyle;rounded=0;comic=0;orthogonalLoop=1;jettySize=auto;html=1;exitX=1;exitY=0.5;exitDx=0;exitDy=0;entryX=0;entryY=0.5;entryDx=0;entryDy=0;dashed=1;" parent="aFUeFcgqcbqpGKsalu1n-1" source="D91PJLBFM3zlLrVeym7b-7" target="D91PJLBFM3zlLrVeym7b-9" edge="1">
          <mxGeometry relative="1" as="geometry"/>
        </mxCell>
        <mxCell id="D91PJLBFM3zlLrVeym7b-7" value="否定关键词" style="rounded=0;whiteSpace=wrap;html=1;align=left;" parent="aFUeFcgqcbqpGKsalu1n-1" vertex="1">
          <mxGeometry x="393" y="1197" width="72" height="30" as="geometry"/>
        </mxCell>
        <mxCell id="D91PJLBFM3zlLrVeym7b-21" style="edgeStyle=orthogonalEdgeStyle;rounded=0;comic=0;orthogonalLoop=1;jettySize=auto;html=1;exitX=1;exitY=0.5;exitDx=0;exitDy=0;entryX=0.5;entryY=1;entryDx=0;entryDy=0;" parent="aFUeFcgqcbqpGKsalu1n-1" source="D91PJLBFM3zlLrVeym7b-8" target="D91PJLBFM3zlLrVeym7b-3" edge="1">
          <mxGeometry relative="1" as="geometry"/>
        </mxCell>
        <mxCell id="D91PJLBFM3zlLrVeym7b-8" value="相关词" style="rounded=0;whiteSpace=wrap;html=1;align=center;fontStyle=0" parent="aFUeFcgqcbqpGKsalu1n-1" vertex="1">
          <mxGeometry x="392" y="1272" width="71" height="30" as="geometry"/>
        </mxCell>
        <mxCell id="D91PJLBFM3zlLrVeym7b-19" style="edgeStyle=orthogonalEdgeStyle;rounded=0;comic=0;orthogonalLoop=1;jettySize=auto;html=1;exitX=0.5;exitY=0;exitDx=0;exitDy=0;entryX=0.5;entryY=0;entryDx=0;entryDy=0;dashed=1;" parent="aFUeFcgqcbqpGKsalu1n-1" source="D91PJLBFM3zlLrVeym7b-9" target="D91PJLBFM3zlLrVeym7b-2" edge="1">
          <mxGeometry relative="1" as="geometry"/>
        </mxCell>
        <mxCell id="D91PJLBFM3zlLrVeym7b-20" style="edgeStyle=orthogonalEdgeStyle;rounded=0;comic=0;orthogonalLoop=1;jettySize=auto;html=1;exitX=0.5;exitY=0;exitDx=0;exitDy=0;entryX=0;entryY=0.5;entryDx=0;entryDy=0;dashed=1;" parent="aFUeFcgqcbqpGKsalu1n-1" source="D91PJLBFM3zlLrVeym7b-9" target="D91PJLBFM3zlLrVeym7b-3" edge="1">
          <mxGeometry relative="1" as="geometry">
            <Array as="points">
              <mxPoint x="556" y="1140"/>
              <mxPoint x="121" y="1140"/>
              <mxPoint x="121" y="1290"/>
            </Array>
          </mxGeometry>
        </mxCell>
        <mxCell id="D91PJLBFM3zlLrVeym7b-9" value="否定词根" style="rounded=0;whiteSpace=wrap;html=1;align=left;" parent="aFUeFcgqcbqpGKsalu1n-1" vertex="1">
          <mxGeometry x="528" y="1197" width="56" height="30" as="geometry"/>
        </mxCell>
        <mxCell id="D91PJLBFM3zlLrVeym7b-18" value="" style="endArrow=classic;html=1;dashed=1;exitX=0.5;exitY=0;exitDx=0;exitDy=0;entryX=0.5;entryY=0;entryDx=0;entryDy=0;edgeStyle=orthogonalEdgeStyle;" parent="aFUeFcgqcbqpGKsalu1n-1" source="D91PJLBFM3zlLrVeym7b-7" target="D91PJLBFM3zlLrVeym7b-2" edge="1">
          <mxGeometry width="50" height="50" relative="1" as="geometry">
            <mxPoint x="393" y="1178" as="sourcePoint"/>
            <mxPoint x="443" y="1128" as="targetPoint"/>
          </mxGeometry>
        </mxCell>
        <mxCell id="D91PJLBFM3zlLrVeym7b-22" value="&lt;font style=&quot;font-size: 15px&quot;&gt;关键词流转闭环&lt;/font&gt;" style="text;html=1;strokeColor=#b85450;fillColor=#f8cecc;align=center;verticalAlign=middle;whiteSpace=wrap;rounded=0;" parent="aFUeFcgqcbqpGKsalu1n-1" vertex="1">
          <mxGeometry x="177" y="1360" width="274" height="40" as="geometry"/>
        </mxCell>
        <mxCell id="D91PJLBFM3zlLrVeym7b-23" value="三级否定" style="text;html=1;strokeColor=none;fillColor=none;align=center;verticalAlign=middle;whiteSpace=wrap;rounded=0;" parent="aFUeFcgqcbqpGKsalu1n-1" vertex="1">
          <mxGeometry x="309" y="1110" width="61" height="20" as="geometry"/>
        </mxCell>
        <mxCell id="D91PJLBFM3zlLrVeym7b-24" value="三级否定" style="text;html=1;strokeColor=none;fillColor=none;align=center;verticalAlign=middle;whiteSpace=wrap;rounded=0;" parent="aFUeFcgqcbqpGKsalu1n-1" vertex="1">
          <mxGeometry x="308" y="1150" width="61" height="20" as="geometry"/>
        </mxCell>
        <mxCell id="Vsc_Vu7T-lR5X6EC8TN8-0" value="&lt;h1&gt;&lt;font style=&quot;font-size: 20px&quot;&gt;Step2&amp;nbsp; （稳定期）&lt;/font&gt;&lt;/h1&gt;&lt;p&gt;关键词与产品产生强关联&lt;/p&gt;&lt;p&gt;关键词激活&lt;/p&gt;&lt;p&gt;部分关键词已经在较低的费用拿到第一位置&lt;/p&gt;" style="text;html=1;strokeColor=none;fillColor=none;spacing=5;spacingTop=-20;whiteSpace=wrap;overflow=hidden;rounded=0;" parent="aFUeFcgqcbqpGKsalu1n-1" vertex="1">
          <mxGeometry x="20" y="1440" width="246" height="126" as="geometry"/>
        </mxCell>
        <mxCell id="VGMCllC0hiWvaKZrJX76-2" value="" style="edgeStyle=orthogonalEdgeStyle;rounded=0;comic=0;orthogonalLoop=1;jettySize=auto;html=1;" parent="aFUeFcgqcbqpGKsalu1n-1" source="VGMCllC0hiWvaKZrJX76-0" target="VGMCllC0hiWvaKZrJX76-1" edge="1">
          <mxGeometry relative="1" as="geometry"/>
        </mxCell>
        <mxCell id="VGMCllC0hiWvaKZrJX76-0" value="相关词" style="rounded=0;whiteSpace=wrap;html=1;align=center;fontStyle=0" parent="aFUeFcgqcbqpGKsalu1n-1" vertex="1">
          <mxGeometry x="40" y="1580" width="71" height="30" as="geometry"/>
        </mxCell>
        <mxCell id="VGMCllC0hiWvaKZrJX76-4" value="" style="edgeStyle=orthogonalEdgeStyle;rounded=0;comic=0;orthogonalLoop=1;jettySize=auto;html=1;" parent="aFUeFcgqcbqpGKsalu1n-1" source="VGMCllC0hiWvaKZrJX76-1" target="VGMCllC0hiWvaKZrJX76-3" edge="1">
          <mxGeometry relative="1" as="geometry"/>
        </mxCell>
        <mxCell id="VGMCllC0hiWvaKZrJX76-6" value="" style="edgeStyle=orthogonalEdgeStyle;rounded=0;comic=0;orthogonalLoop=1;jettySize=auto;html=1;" parent="aFUeFcgqcbqpGKsalu1n-1" source="VGMCllC0hiWvaKZrJX76-1" target="VGMCllC0hiWvaKZrJX76-5" edge="1">
          <mxGeometry relative="1" as="geometry"/>
        </mxCell>
        <mxCell id="mgvQKsFTc96PtWNJBa2l-8" style="edgeStyle=orthogonalEdgeStyle;rounded=0;orthogonalLoop=1;jettySize=auto;html=1;exitX=0.5;exitY=1;exitDx=0;exitDy=0;entryX=0.5;entryY=0;entryDx=0;entryDy=0;" parent="aFUeFcgqcbqpGKsalu1n-1" source="VGMCllC0hiWvaKZrJX76-1" target="mgvQKsFTc96PtWNJBa2l-7" edge="1">
          <mxGeometry relative="1" as="geometry"/>
        </mxCell>
        <mxCell id="VGMCllC0hiWvaKZrJX76-1" value="客户点击词" style="rounded=0;whiteSpace=wrap;html=1;align=center;fontStyle=0" parent="aFUeFcgqcbqpGKsalu1n-1" vertex="1">
          <mxGeometry x="191" y="1580" width="71" height="30" as="geometry"/>
        </mxCell>
        <mxCell id="VGMCllC0hiWvaKZrJX76-8" value="" style="edgeStyle=orthogonalEdgeStyle;rounded=0;comic=0;orthogonalLoop=1;jettySize=auto;html=1;" parent="aFUeFcgqcbqpGKsalu1n-1" source="VGMCllC0hiWvaKZrJX76-5" target="VGMCllC0hiWvaKZrJX76-7" edge="1">
          <mxGeometry relative="1" as="geometry">
            <Array as="points">
              <mxPoint x="460" y="1595"/>
              <mxPoint x="460" y="1535"/>
            </Array>
          </mxGeometry>
        </mxCell>
        <mxCell id="mgvQKsFTc96PtWNJBa2l-18" style="edgeStyle=orthogonalEdgeStyle;rounded=0;orthogonalLoop=1;jettySize=auto;html=1;exitX=1;exitY=0.5;exitDx=0;exitDy=0;entryX=0;entryY=0.5;entryDx=0;entryDy=0;fontSize=17;" parent="aFUeFcgqcbqpGKsalu1n-1" source="VGMCllC0hiWvaKZrJX76-5" target="mgvQKsFTc96PtWNJBa2l-16" edge="1">
          <mxGeometry relative="1" as="geometry">
            <Array as="points">
              <mxPoint x="460" y="1595"/>
              <mxPoint x="460" y="1664"/>
            </Array>
          </mxGeometry>
        </mxCell>
        <mxCell id="VGMCllC0hiWvaKZrJX76-5" value="出单词" style="rounded=0;whiteSpace=wrap;html=1;align=center;fontStyle=0" parent="aFUeFcgqcbqpGKsalu1n-1" vertex="1">
          <mxGeometry x="342" y="1580" width="71" height="30" as="geometry"/>
        </mxCell>
        <mxCell id="VGMCllC0hiWvaKZrJX76-7" value="流量触顶" style="rounded=0;whiteSpace=wrap;html=1;align=center;fontStyle=0" parent="aFUeFcgqcbqpGKsalu1n-1" vertex="1">
          <mxGeometry x="493" y="1520" width="138" height="30" as="geometry"/>
        </mxCell>
        <mxCell id="mgvQKsFTc96PtWNJBa2l-4" value="" style="edgeStyle=orthogonalEdgeStyle;rounded=0;orthogonalLoop=1;jettySize=auto;html=1;" parent="aFUeFcgqcbqpGKsalu1n-1" source="VGMCllC0hiWvaKZrJX76-3" target="mgvQKsFTc96PtWNJBa2l-3" edge="1">
          <mxGeometry relative="1" as="geometry"/>
        </mxCell>
        <mxCell id="mgvQKsFTc96PtWNJBa2l-14" style="edgeStyle=orthogonalEdgeStyle;rounded=0;orthogonalLoop=1;jettySize=auto;html=1;exitX=1;exitY=0.5;exitDx=0;exitDy=0;entryX=0.5;entryY=1;entryDx=0;entryDy=0;dashed=1;" parent="aFUeFcgqcbqpGKsalu1n-1" source="VGMCllC0hiWvaKZrJX76-3" target="VGMCllC0hiWvaKZrJX76-5" edge="1">
          <mxGeometry relative="1" as="geometry"/>
        </mxCell>
        <mxCell id="VGMCllC0hiWvaKZrJX76-3" value="无单打压" style="rounded=0;whiteSpace=wrap;html=1;align=center;fontStyle=0" parent="aFUeFcgqcbqpGKsalu1n-1" vertex="1">
          <mxGeometry x="244" y="1690" width="71" height="30" as="geometry"/>
        </mxCell>
        <mxCell id="mgvQKsFTc96PtWNJBa2l-3" value="更新不相关词体系" style="rounded=0;whiteSpace=wrap;html=1;align=center;fontStyle=0" parent="aFUeFcgqcbqpGKsalu1n-1" vertex="1">
          <mxGeometry x="244" y="1784" width="71" height="30" as="geometry"/>
        </mxCell>
        <mxCell id="mgvQKsFTc96PtWNJBa2l-0" value="归一化" style="text;html=1;strokeColor=none;fillColor=none;align=center;verticalAlign=middle;whiteSpace=wrap;rounded=0;" parent="aFUeFcgqcbqpGKsalu1n-1" vertex="1">
          <mxGeometry x="318.5" y="1330" width="40" height="20" as="geometry"/>
        </mxCell>
        <mxCell id="mgvQKsFTc96PtWNJBa2l-1" value="点击≥10次，不出单" style="text;html=1;strokeColor=none;fillColor=none;align=center;verticalAlign=middle;whiteSpace=wrap;rounded=0;" parent="aFUeFcgqcbqpGKsalu1n-1" vertex="1">
          <mxGeometry x="294" y="1641" width="76" height="29" as="geometry"/>
        </mxCell>
        <mxCell id="mgvQKsFTc96PtWNJBa2l-6" value="订单&amp;gt;0" style="text;html=1;resizable=0;points=[];autosize=1;align=left;verticalAlign=top;spacingTop=-4;" parent="aFUeFcgqcbqpGKsalu1n-1" vertex="1">
          <mxGeometry x="276" y="1571" width="50" height="20" as="geometry"/>
        </mxCell>
        <mxCell id="mgvQKsFTc96PtWNJBa2l-10" style="edgeStyle=orthogonalEdgeStyle;rounded=0;orthogonalLoop=1;jettySize=auto;html=1;exitX=0.5;exitY=1;exitDx=0;exitDy=0;entryX=0.5;entryY=1;entryDx=0;entryDy=0;dashed=1;" parent="aFUeFcgqcbqpGKsalu1n-1" source="mgvQKsFTc96PtWNJBa2l-7" target="VGMCllC0hiWvaKZrJX76-5" edge="1">
          <mxGeometry relative="1" as="geometry">
            <Array as="points">
              <mxPoint x="174" y="1850"/>
              <mxPoint x="378" y="1850"/>
            </Array>
          </mxGeometry>
        </mxCell>
        <mxCell id="mgvQKsFTc96PtWNJBa2l-12" style="edgeStyle=orthogonalEdgeStyle;rounded=0;orthogonalLoop=1;jettySize=auto;html=1;exitX=1;exitY=0.5;exitDx=0;exitDy=0;entryX=0;entryY=0.5;entryDx=0;entryDy=0;dashed=1;" parent="aFUeFcgqcbqpGKsalu1n-1" source="mgvQKsFTc96PtWNJBa2l-7" target="VGMCllC0hiWvaKZrJX76-3" edge="1">
          <mxGeometry relative="1" as="geometry"/>
        </mxCell>
        <mxCell id="mgvQKsFTc96PtWNJBa2l-7" value="无单观察" style="rounded=0;whiteSpace=wrap;html=1;align=center;fontStyle=0" parent="aFUeFcgqcbqpGKsalu1n-1" vertex="1">
          <mxGeometry x="138.5" y="1690" width="71" height="30" as="geometry"/>
        </mxCell>
        <mxCell id="mgvQKsFTc96PtWNJBa2l-11" value="点击超过20次，不出单" style="text;html=1;strokeColor=none;fillColor=none;align=center;verticalAlign=middle;whiteSpace=wrap;rounded=0;" parent="aFUeFcgqcbqpGKsalu1n-1" vertex="1">
          <mxGeometry x="288" y="1737" width="68" height="30" as="geometry"/>
        </mxCell>
        <mxCell id="mgvQKsFTc96PtWNJBa2l-13" value="点击＜10&lt;br&gt;" style="text;html=1;strokeColor=none;fillColor=none;align=center;verticalAlign=middle;whiteSpace=wrap;rounded=0;" parent="aFUeFcgqcbqpGKsalu1n-1" vertex="1">
          <mxGeometry x="100" y="1638" width="54" height="26" as="geometry"/>
        </mxCell>
        <mxCell id="mgvQKsFTc96PtWNJBa2l-15" value="相关关键词单向晋级图" style="text;html=1;strokeColor=#b85450;fillColor=#f8cecc;align=center;verticalAlign=middle;whiteSpace=wrap;rounded=0;fontSize=17;" parent="aFUeFcgqcbqpGKsalu1n-1" vertex="1">
          <mxGeometry x="152" y="1880" width="238" height="30" as="geometry"/>
        </mxCell>
        <mxCell id="mgvQKsFTc96PtWNJBa2l-16" value="低转化词（常见大词）" style="rounded=0;whiteSpace=wrap;html=1;align=center;fontStyle=0" parent="aFUeFcgqcbqpGKsalu1n-1" vertex="1">
          <mxGeometry x="493" y="1651" width="138" height="26" as="geometry"/>
        </mxCell>
        <mxCell id="mgvQKsFTc96PtWNJBa2l-19" value="暂未启动" style="text;html=1;strokeColor=none;fillColor=none;align=center;verticalAlign=middle;whiteSpace=wrap;rounded=0;fontSize=14;" parent="aFUeFcgqcbqpGKsalu1n-1" vertex="1">
          <mxGeometry x="522" y="1690" width="78" height="20" as="geometry"/>
        </mxCell>
      </root>
    </mxGraphModel>
  </diagram>
  <diagram id="RWSSTnK4NCuOmX4TWyJ7" name="How to set a price">
    <mxGraphModel dx="1323" dy="820" grid="1" gridSize="10" guides="1" tooltips="1" connect="1" arrows="1" fold="1" page="1" pageScale="1" pageWidth="1169" pageHeight="827" math="0" shadow="0">
      <root>
        <mxCell id="rzjySBgdr728QlRs3EEV-0"/>
        <mxCell id="rzjySBgdr728QlRs3EEV-1" parent="rzjySBgdr728QlRs3EEV-0"/>
        <mxCell id="t81qA5DeErSNEoqsxhtE-0" value="&lt;b&gt;&lt;span style=&quot;font-size: 28px&quot;&gt;参看《市场营销》&lt;br&gt;怎样去定价?&lt;/span&gt;&lt;br&gt;&lt;br&gt;&lt;font style=&quot;font-size: 16px&quot;&gt;传统做法：&lt;br&gt;&lt;br&gt;&lt;ul&gt;&lt;li&gt;价值定价法&lt;/li&gt;&lt;li&gt;成本定价法&lt;/li&gt;&lt;li&gt;竞争定价法&lt;/li&gt;&lt;/ul&gt;&lt;/font&gt;&lt;br&gt;&lt;/b&gt;" style="text;html=1;strokeColor=none;fillColor=none;spacing=5;spacingTop=-20;whiteSpace=wrap;overflow=hidden;rounded=0;fontSize=14;" parent="rzjySBgdr728QlRs3EEV-1" vertex="1">
          <mxGeometry x="40" y="40" width="240" height="170" as="geometry"/>
        </mxCell>
      </root>
    </mxGraphModel>
  </diagram>
</mxfile>
